<?xml version="1.0" encoding="UTF-8"?>
<svg xmlns="http://www.w3.org/2000/svg" xmlns:xlink="http://www.w3.org/1999/xlink" width="150px" height="11px" viewBox="0 0 156 11" version="1.1">
  <g id="surface1">
    <path style=" stroke:none;fill-rule:nonzero;fill:rgb(0%,0%,0%);fill-opacity:1;" d="M 5.492188 10.816406 L 7.726562 10.816406 L 5.492188 6.859375 C 6.789062 6.3125 7.472656 5.09375 7.472656 3.660156 C 7.472656 1.710938 6.179688 0.15625 3.855469 0.15625 L 0 0.15625 L 0 10.816406 L 1.980469 10.816406 L 1.980469 7.160156 L 3.421875 7.160156 Z M 1.980469 2.105469 L 3.808594 2.105469 C 4.792969 2.105469 5.417969 2.746094 5.417969 3.660156 C 5.417969 4.574219 4.792969 5.226562 3.808594 5.226562 L 1.980469 5.226562 Z M 1.980469 2.105469 "/>
    <path style=" stroke:none;fill-rule:nonzero;fill:rgb(0%,0%,0%);fill-opacity:1;" d="M 13.054688 8.882812 L 13.054688 6.460938 L 17.445312 6.460938 L 17.445312 4.527344 L 13.054688 4.527344 L 13.054688 2.105469 L 17.90625 2.105469 L 17.90625 0.15625 L 11.074219 0.15625 L 11.074219 10.816406 L 17.996094 10.816406 L 17.996094 8.882812 Z M 13.054688 8.882812 "/>
    <path style=" stroke:none;fill-rule:nonzero;fill:rgb(0%,0%,0%);fill-opacity:1;" d="M 26.390625 8.898438 C 24.5 8.898438 23.371094 7.4375 23.371094 5.503906 C 23.371094 3.570312 24.5 2.089844 26.390625 2.089844 C 27.539062 2.089844 28.402344 2.625 28.921875 3.476562 L 30.710938 2.5625 C 29.859375 1.042969 28.3125 0.0664062 26.394531 0.0664062 C 23.402344 0.0664062 21.347656 2.441406 21.347656 5.503906 C 21.347656 8.5625 23.402344 10.9375 26.394531 10.9375 C 28.3125 10.9375 29.863281 9.949219 30.710938 8.441406 L 28.921875 7.527344 C 28.402344 8.378906 27.539062 8.898438 26.390625 8.898438 Z M 26.390625 8.898438 "/>
    <path style=" stroke:none;fill-rule:nonzero;fill:rgb(0%,0%,0%);fill-opacity:1;" d="M 36.113281 8.882812 L 36.113281 6.460938 L 40.503906 6.460938 L 40.503906 4.527344 L 36.113281 4.527344 L 36.113281 2.105469 L 40.964844 2.105469 L 40.964844 0.15625 L 34.132812 0.15625 L 34.132812 10.816406 L 41.054688 10.816406 L 41.054688 8.882812 Z M 36.113281 8.882812 "/>
    <path style=" stroke:none;fill-rule:nonzero;fill:rgb(0%,0%,0%);fill-opacity:1;" d="M 50.90625 0.15625 L 50.90625 7.070312 L 46.710938 0.15625 L 44.773438 0.15625 L 44.773438 10.816406 L 46.753906 10.816406 L 46.753906 3.902344 L 50.9375 10.816406 L 52.886719 10.816406 L 52.886719 0.15625 Z M 50.90625 0.15625 "/>
    <path style=" stroke:none;fill-rule:nonzero;fill:rgb(0%,0%,0%);fill-opacity:1;" d="M 60.71875 4.40625 C 59.078125 3.886719 58.691406 3.570312 58.691406 3.066406 C 58.691406 2.363281 59.453125 2.058594 60.285156 2.074219 C 61.042969 2.089844 61.894531 2.457031 62.027344 3.125 L 63.785156 2.457031 C 63.488281 0.933594 61.863281 0.0664062 60.269531 0.0664062 C 57.589844 0.0664062 56.59375 1.742188 56.59375 3.140625 C 56.59375 4.710938 57.578125 5.636719 59.972656 6.371094 C 61.667969 6.886719 62.175781 7.160156 62.175781 7.800781 C 62.175781 8.441406 61.519531 8.941406 60.316406 8.941406 C 59.230469 8.941406 58.320312 8.441406 58.128906 7.632812 L 56.3125 8.347656 C 56.609375 9.886719 58.457031 10.996094 60.496094 10.996094 C 63.085938 10.996094 64.292969 9.488281 64.292969 7.722656 C 64.292969 5.742188 62.773438 5.042969 60.71875 4.402344 Z M 60.71875 4.40625 "/>
    <path style=" stroke:none;fill-rule:nonzero;fill:rgb(0%,0%,0%);fill-opacity:1;" d="M 67.789062 0.15625 L 67.789062 10.816406 L 69.765625 10.816406 L 69.765625 0.15625 Z M 67.789062 0.15625 "/>
    <path style=" stroke:none;fill-rule:nonzero;fill:rgb(0%,0%,0%);fill-opacity:1;" d="M 78.402344 0.0664062 C 75.410156 0.0664062 73.339844 2.441406 73.339844 5.503906 C 73.339844 8.5625 75.410156 10.9375 78.402344 10.9375 C 81.394531 10.9375 83.449219 8.5625 83.449219 5.503906 C 83.449219 2.441406 81.394531 0.0664062 78.402344 0.0664062 Z M 78.402344 8.898438 C 76.496094 8.898438 75.363281 7.4375 75.363281 5.503906 C 75.363281 3.570312 76.496094 2.089844 78.402344 2.089844 C 80.304688 2.089844 81.421875 3.554688 81.421875 5.503906 C 81.421875 7.453125 80.289062 8.898438 78.402344 8.898438 Z M 78.402344 8.898438 "/>
    <path style=" stroke:none;fill-rule:nonzero;fill:rgb(0%,0%,0%);fill-opacity:1;" d="M 93.152344 0.15625 L 93.152344 7.070312 L 88.953125 0.15625 L 87.019531 0.15625 L 87.019531 10.816406 L 88.996094 10.816406 L 88.996094 3.902344 L 93.179688 10.816406 L 95.132812 10.816406 L 95.132812 0.15625 Z M 93.152344 0.15625 "/>
    <path style=" stroke:none;fill-rule:nonzero;fill:rgb(0%,0%,0%);fill-opacity:1;" d="M 101.058594 8.882812 L 101.058594 6.460938 L 105.449219 6.460938 L 105.449219 4.527344 L 101.058594 4.527344 L 101.058594 2.105469 L 105.910156 2.105469 L 105.910156 0.15625 L 99.078125 0.15625 L 99.078125 10.816406 L 106 10.816406 L 106 8.882812 Z M 101.058594 8.882812 "/>
    <path style=" stroke:none;fill-rule:nonzero;fill:rgb(0%,0%,0%);fill-opacity:1;" d="M 115.210938 10.816406 L 117.445312 10.816406 L 115.210938 6.859375 C 116.507812 6.3125 117.191406 5.09375 117.191406 3.660156 C 117.191406 1.710938 115.894531 0.160156 113.574219 0.160156 L 109.71875 0.160156 L 109.71875 10.816406 L 111.699219 10.816406 L 111.699219 7.164062 L 113.144531 7.164062 Z M 111.699219 2.105469 L 113.53125 2.105469 C 114.511719 2.105469 115.136719 2.746094 115.136719 3.660156 C 115.136719 4.574219 114.511719 5.226562 113.53125 5.226562 L 111.699219 5.226562 Z M 111.699219 2.105469 "/>
    <path style=" stroke:none;fill-rule:nonzero;fill:rgb(0%,0%,0%);fill-opacity:1;" d="M 121.09375 9.625 C 120.765625 9.625 120.5 9.898438 120.5 10.230469 C 120.5 10.566406 120.765625 10.855469 121.09375 10.855469 C 121.421875 10.855469 121.703125 10.582031 121.703125 10.230469 C 121.703125 9.882812 121.4375 9.625 121.09375 9.625 Z M 121.09375 9.625 "/>
    <path style=" stroke:none;fill-rule:nonzero;fill:rgb(0%,0%,0%);fill-opacity:1;" d="M 132.867188 10.65625 L 134.058594 10.65625 L 130.113281 0 L 129.132812 0 L 125.203125 10.65625 L 126.390625 10.65625 L 127.523438 7.566406 L 131.734375 7.566406 Z M 127.925781 6.46875 L 129.625 1.75 L 131.335938 6.46875 Z M 127.925781 6.46875 "/>
    <path style=" stroke:none;fill-rule:nonzero;fill:rgb(0%,0%,0%);fill-opacity:1;" d="M 141.695312 0 L 137.78125 0 L 137.78125 10.65625 L 138.867188 10.65625 L 138.867188 6.605469 L 141.695312 6.605469 C 143.585938 6.605469 144.957031 5.097656 144.957031 3.304688 C 144.957031 1.507812 143.644531 0 141.695312 0 Z M 141.695312 5.511719 L 138.867188 5.511719 L 138.867188 1.097656 L 141.695312 1.097656 C 143.019531 1.097656 143.839844 2.117188 143.839844 3.304688 C 143.839844 4.492188 143.003906 5.511719 141.695312 5.511719 Z M 141.695312 5.511719 "/>
    <path style=" stroke:none;fill-rule:nonzero;fill:rgb(0%,0%,0%);fill-opacity:1;" d="M 152.742188 0 L 148.824219 0 L 148.824219 10.65625 L 149.914062 10.65625 L 149.914062 6.605469 L 152.742188 6.605469 C 154.632812 6.605469 156 5.097656 156 3.304688 C 156 1.507812 154.691406 0 152.742188 0 Z M 152.742188 5.511719 L 149.914062 5.511719 L 149.914062 1.097656 L 152.742188 1.097656 C 154.066406 1.097656 154.882812 2.117188 154.882812 3.304688 C 154.882812 4.492188 154.050781 5.511719 152.742188 5.511719 Z M 152.742188 5.511719 "/>
  </g>
</svg>
